<mxfile host="app.diagrams.net" agent="Mozilla/5.0 (Windows NT 10.0; Win64; x64) AppleWebKit/537.36 (KHTML, like Gecko) Chrome/129.0.0.0 Safari/537.36" version="24.7.17">
  <diagram name="Halaman-1" id="IxyqmZACcPEmtfFFvU-A">
    <mxGraphModel dx="1034" dy="412" grid="1" gridSize="10" guides="1" tooltips="1" connect="1" arrows="1" fold="1" page="1" pageScale="1" pageWidth="827" pageHeight="1169" math="0" shadow="0">
      <root>
        <mxCell id="0" />
        <mxCell id="1" parent="0" />
        <mxCell id="g2tbcCET-_Aqp_5yz8-U-4" value="" style="edgeStyle=orthogonalEdgeStyle;rounded=0;orthogonalLoop=1;jettySize=auto;html=1;" edge="1" parent="1" source="g2tbcCET-_Aqp_5yz8-U-2" target="g2tbcCET-_Aqp_5yz8-U-3">
          <mxGeometry relative="1" as="geometry" />
        </mxCell>
        <mxCell id="g2tbcCET-_Aqp_5yz8-U-2" value="anggota_perpustakaan&lt;div&gt;&lt;br&gt;&lt;/div&gt;" style="rounded=0;whiteSpace=wrap;html=1;" vertex="1" parent="1">
          <mxGeometry x="30" y="40" width="120" height="60" as="geometry" />
        </mxCell>
        <mxCell id="g2tbcCET-_Aqp_5yz8-U-3" value="" style="shape=waypoint;sketch=0;size=6;pointerEvents=1;points=[];fillColor=default;resizable=0;rotatable=0;perimeter=centerPerimeter;snapToPoint=1;rounded=0;" vertex="1" parent="1">
          <mxGeometry x="280" y="60" width="20" height="20" as="geometry" />
        </mxCell>
        <mxCell id="g2tbcCET-_Aqp_5yz8-U-27" value="" style="edgeStyle=orthogonalEdgeStyle;rounded=0;orthogonalLoop=1;jettySize=auto;html=1;" edge="1" parent="1" source="g2tbcCET-_Aqp_5yz8-U-5" target="g2tbcCET-_Aqp_5yz8-U-14">
          <mxGeometry relative="1" as="geometry" />
        </mxCell>
        <mxCell id="g2tbcCET-_Aqp_5yz8-U-5" value="Proses pinjam buku" style="whiteSpace=wrap;html=1;sketch=0;pointerEvents=1;resizable=0;rounded=0;" vertex="1" parent="1">
          <mxGeometry x="294" y="40" width="120" height="60" as="geometry" />
        </mxCell>
        <mxCell id="g2tbcCET-_Aqp_5yz8-U-7" value="Permintaan pinjaman" style="text;html=1;align=center;verticalAlign=middle;resizable=0;points=[];autosize=1;strokeColor=none;fillColor=none;" vertex="1" parent="1">
          <mxGeometry x="150" y="48" width="140" height="30" as="geometry" />
        </mxCell>
        <mxCell id="g2tbcCET-_Aqp_5yz8-U-9" value="" style="edgeStyle=orthogonalEdgeStyle;rounded=0;orthogonalLoop=1;jettySize=auto;html=1;" edge="1" parent="1" source="g2tbcCET-_Aqp_5yz8-U-8" target="g2tbcCET-_Aqp_5yz8-U-2">
          <mxGeometry relative="1" as="geometry" />
        </mxCell>
        <mxCell id="g2tbcCET-_Aqp_5yz8-U-11" value="" style="edgeStyle=orthogonalEdgeStyle;rounded=0;orthogonalLoop=1;jettySize=auto;html=1;" edge="1" parent="1" source="g2tbcCET-_Aqp_5yz8-U-8" target="g2tbcCET-_Aqp_5yz8-U-10">
          <mxGeometry relative="1" as="geometry" />
        </mxCell>
        <mxCell id="g2tbcCET-_Aqp_5yz8-U-13" value="" style="edgeStyle=orthogonalEdgeStyle;rounded=0;orthogonalLoop=1;jettySize=auto;html=1;" edge="1" parent="1" source="g2tbcCET-_Aqp_5yz8-U-8" target="g2tbcCET-_Aqp_5yz8-U-12">
          <mxGeometry relative="1" as="geometry" />
        </mxCell>
        <mxCell id="g2tbcCET-_Aqp_5yz8-U-8" value="Proses daftar anggota" style="rounded=0;whiteSpace=wrap;html=1;" vertex="1" parent="1">
          <mxGeometry x="30" y="150" width="120" height="60" as="geometry" />
        </mxCell>
        <mxCell id="g2tbcCET-_Aqp_5yz8-U-18" value="" style="edgeStyle=orthogonalEdgeStyle;rounded=0;orthogonalLoop=1;jettySize=auto;html=1;" edge="1" parent="1" source="g2tbcCET-_Aqp_5yz8-U-10" target="g2tbcCET-_Aqp_5yz8-U-17">
          <mxGeometry relative="1" as="geometry" />
        </mxCell>
        <mxCell id="g2tbcCET-_Aqp_5yz8-U-26" value="Detail buku&lt;div&gt;&lt;br&gt;&lt;/div&gt;" style="edgeLabel;html=1;align=center;verticalAlign=middle;resizable=0;points=[];" vertex="1" connectable="0" parent="g2tbcCET-_Aqp_5yz8-U-18">
          <mxGeometry x="-0.1476" y="9" relative="1" as="geometry">
            <mxPoint x="10" y="-11" as="offset" />
          </mxGeometry>
        </mxCell>
        <mxCell id="g2tbcCET-_Aqp_5yz8-U-10" value="Pengelolaan buku" style="rounded=0;whiteSpace=wrap;html=1;" vertex="1" parent="1">
          <mxGeometry x="30" y="260" width="120" height="60" as="geometry" />
        </mxCell>
        <mxCell id="g2tbcCET-_Aqp_5yz8-U-12" value="" style="shape=waypoint;sketch=0;size=6;pointerEvents=1;points=[];fillColor=default;resizable=0;rotatable=0;perimeter=centerPerimeter;snapToPoint=1;rounded=0;" vertex="1" parent="1">
          <mxGeometry x="280" y="170" width="20" height="20" as="geometry" />
        </mxCell>
        <mxCell id="g2tbcCET-_Aqp_5yz8-U-14" value="Proses pengembalian&lt;div&gt;buku&lt;/div&gt;" style="whiteSpace=wrap;html=1;sketch=0;pointerEvents=1;resizable=0;rounded=0;" vertex="1" parent="1">
          <mxGeometry x="294" y="150" width="120" height="60" as="geometry" />
        </mxCell>
        <mxCell id="g2tbcCET-_Aqp_5yz8-U-16" value="Konfirmasi&lt;div&gt;&amp;nbsp;pengembalian&lt;div&gt;&lt;br&gt;&lt;/div&gt;&lt;/div&gt;" style="text;html=1;align=center;verticalAlign=middle;resizable=0;points=[];autosize=1;strokeColor=none;fillColor=none;" vertex="1" parent="1">
          <mxGeometry x="170" y="143" width="100" height="60" as="geometry" />
        </mxCell>
        <mxCell id="g2tbcCET-_Aqp_5yz8-U-17" value="" style="shape=waypoint;sketch=0;size=6;pointerEvents=1;points=[];fillColor=default;resizable=0;rotatable=0;perimeter=centerPerimeter;snapToPoint=1;rounded=0;" vertex="1" parent="1">
          <mxGeometry x="280" y="280" width="20" height="20" as="geometry" />
        </mxCell>
        <mxCell id="g2tbcCET-_Aqp_5yz8-U-19" value="Data base buku" style="whiteSpace=wrap;html=1;sketch=0;pointerEvents=1;resizable=0;rounded=0;" vertex="1" parent="1">
          <mxGeometry x="290" y="260" width="120" height="60" as="geometry" />
        </mxCell>
      </root>
    </mxGraphModel>
  </diagram>
</mxfile>
